<?xml version="1.0" encoding="utf-8"?>
<svg width="163.99995px" height="85.69849px" viewBox="0 0 163.99995 85.69849" version="1.1" xmlns:xlink="http://www.w3.org/1999/xlink" xmlns="http://www.w3.org/2000/svg">
  <g id="logo">
    <g id="bino" transform="translate(14.001465 9.698486)">
      <path d="M44 30C44 20.6112 54.7452 13 68 13C81.2548 13 92 20.6112 92 30C92 39.3888 81.2548 47 68 47C54.7452 47 44 39.3888 44 30Z" id="bridge" fill="#4C6EF5" fill-rule="evenodd" stroke="none" />
      <path d="M0 24L16.5 8L120 8L136 24L0 24Z" id="bottom" fill="#2421E2" fill-rule="evenodd" stroke="none" />
      <path d="M55.6828 0L32.6634 0Q31.6938 0 30.7288 0.0937911Q29.7637 0.187582 28.8123 0.374285Q27.8609 0.560987 26.932 0.83885Q26.0031 1.11671 25.1054 1.48313Q24.2077 1.84955 23.3497 2.30108Q22.4917 2.75261 21.6814 3.28503Q20.8711 3.81745 20.1161 4.42575Q19.3611 5.03406 18.6685 5.71254L12.2483 12.0017Q12.0633 12.1829 11.8922 12.3772Q11.7212 12.5716 11.565 12.778Q11.4087 12.9845 11.2682 13.2019Q11.1276 13.4194 11.0035 13.6466Q10.8794 13.8738 10.7724 14.1096Q10.6655 14.3454 10.5762 14.5884Q10.4869 14.8314 10.4159 15.0804Q10.3448 15.3294 10.2923 15.5829Q10.2399 15.8364 10.2063 16.0931Q10.1727 16.3499 10.1581 16.6084Q10.1436 16.8668 10.1482 17.1257Q10.1528 17.3846 10.1765 17.6424Q10.2002 17.9002 10.2429 18.1556Q10.2857 18.4109 10.3471 18.6624Q10.4086 18.914 10.4884 19.1602Q10.5683 19.4065 10.6661 19.6462Q10.764 19.8859 10.8793 20.1177Q10.9946 20.3496 11.1267 20.5722Q11.2588 20.7949 11.4069 21.0072Q11.5551 21.2195 11.7186 21.4203Q11.8821 21.621 12.0599 21.8092Q12.2378 21.9973 12.4291 22.1718Q12.6204 22.3463 12.824 22.5062Q13.0277 22.6661 13.2426 22.8105Q13.4575 22.9549 13.6824 23.083Q13.9074 23.2111 14.1413 23.3223Q14.3751 23.4334 14.6165 23.527Q14.8579 23.6205 15.1056 23.696Q15.3532 23.7715 15.6058 23.8285Q15.8583 23.8854 16.1144 23.9236Q16.3705 23.9617 16.6287 23.9809Q16.8869 24 17.1458 24L119.208 24Q119.467 24 119.725 23.981Q119.983 23.9621 120.239 23.9243Q120.495 23.8865 120.748 23.83Q121 23.7735 121.248 23.6987Q121.496 23.6239 121.737 23.5311Q121.979 23.4384 122.213 23.3282Q122.448 23.218 122.673 23.0909Q122.899 22.9638 123.114 22.8206Q123.33 22.6773 123.534 22.5187Q123.739 22.36 123.931 22.1868Q124.124 22.0136 124.303 21.8268Q124.482 21.64 124.647 21.4405Q124.812 21.2411 124.962 21.0301Q125.112 20.8191 125.246 20.5977Q125.38 20.3763 125.498 20.1457Q125.615 19.915 125.715 19.6764Q125.816 19.4378 125.898 19.1925Q125.981 18.9471 126.045 18.6964Q126.11 18.4457 126.155 18.1909Q126.201 17.9362 126.228 17.6788Q126.255 17.4213 126.264 17.1626Q126.272 16.9039 126.261 16.6453Q126.25 16.3866 126.22 16.1295Q126.191 15.8724 126.142 15.6181Q126.094 15.3638 126.027 15.1138Q125.96 14.8638 125.874 14.6193Q125.789 14.3749 125.687 14.1373Q125.584 13.8997 125.464 13.6703Q125.344 13.4409 125.208 13.2209Q125.071 13.0009 124.919 12.7915Q124.767 12.5821 124.6 12.3844Q124.433 12.1867 124.252 12.0017L118.382 6.0072Q118.034 5.65171 117.669 5.31397Q117.303 4.97623 116.922 4.65707Q116.54 4.33791 116.143 4.03813Q115.746 3.73834 115.334 3.45867Q114.923 3.179 114.498 2.92014Q114.073 2.66127 113.636 2.42386Q113.199 2.18644 112.75 1.97106Q112.302 1.75568 111.843 1.56287Q111.384 1.37005 110.917 1.20029Q110.449 1.03052 109.973 0.884214Q109.498 0.737911 109.016 0.615434Q108.534 0.492957 108.046 0.39461Q107.558 0.296263 107.066 0.222289Q106.574 0.148315 106.079 0.098897Q105.584 0.0494791 105.087 0.0247396Q104.59 0 104.093 0L78.3172 0C76.6698 4.66077 72.2249 8 67 8C61.7751 8 57.3302 4.66077 55.6828 0Z" id="top" fill="#3B5BDB" fill-rule="evenodd" stroke="none" />
    </g>
    <g id="lens" transform="translate(7.001465 22.698486)">
      <path d="M0 30C0 13.4315 13.4315 0 30 0C46.5685 0 60 13.4315 60 30C60 46.5685 46.5685 60 30 60C13.4315 60 0 46.5685 0 30Z" id="left" fill="#4C6EF5" fill-rule="evenodd" stroke="none" />
      <path d="M90 30C90 13.4315 103.431 0 120 0C136.569 0 150 13.4315 150 30C150 46.5685 136.569 60 120 60C103.431 60 90 46.5685 90 30Z" id="right" fill="#4C6EF5" fill-rule="evenodd" stroke="none" />
    </g>
    <path d="M79.5062 81.9555L73.1099 72.361Q73.0537 72.2768 73.0034 72.189Q72.9531 72.1012 72.9088 72.0103Q72.8645 71.9193 72.8264 71.8255Q72.7883 71.7317 72.7567 71.6356Q72.725 71.5395 72.6999 71.4415Q72.6748 71.3434 72.6564 71.2439Q72.6379 71.1444 72.6263 71.0439Q72.6146 70.9434 72.6097 70.8423Q72.6048 70.7412 72.6067 70.64Q72.6087 70.5389 72.6174 70.438Q72.6262 70.3372 72.6417 70.2372Q72.6572 70.1372 72.6795 70.0385Q72.7017 69.9398 72.7306 69.8428Q72.7594 69.7458 72.7947 69.6509Q72.83 69.5561 72.8717 69.4639Q72.9133 69.3716 72.961 69.2824Q73.0088 69.1932 73.0624 69.1074Q73.1161 69.0216 73.1754 68.9396Q73.2347 68.8576 73.2994 68.7798Q73.3642 68.702 73.434 68.6287Q73.5038 68.5555 73.5784 68.4871Q73.653 68.4187 73.732 68.3555Q73.811 68.2922 73.8941 68.2345Q73.9773 68.1768 74.0641 68.1248Q74.1509 68.0728 74.241 68.0267Q74.3311 67.9807 74.4241 67.9408Q74.5172 67.901 74.6127 67.8675Q74.7082 67.834 74.8057 67.807Q74.9032 67.7801 75.0024 67.7597Q75.1015 67.7394 75.2018 67.7257Q75.302 67.7121 75.403 67.7053Q75.504 67.6985 75.6052 67.6985L88.3978 67.6985Q88.499 67.6985 88.6 67.7053Q88.701 67.7121 88.8012 67.7257Q88.9015 67.7394 89.0006 67.7597Q89.0998 67.7801 89.1973 67.807Q89.2948 67.834 89.3903 67.8675Q89.4858 67.901 89.5789 67.9408Q89.6719 67.9807 89.762 68.0267Q89.8521 68.0728 89.9389 68.1248Q90.0257 68.1768 90.1089 68.2345Q90.192 68.2922 90.271 68.3555Q90.35 68.4187 90.4246 68.4871Q90.4992 68.5555 90.569 68.6287Q90.6388 68.702 90.7035 68.7798Q90.7682 68.8576 90.8276 68.9396Q90.8869 69.0216 90.9405 69.1074Q90.9942 69.1932 91.042 69.2824Q91.0897 69.3716 91.1313 69.4639Q91.173 69.5561 91.2083 69.6509Q91.2436 69.7458 91.2724 69.8428Q91.3013 69.9398 91.3235 70.0385Q91.3458 70.1372 91.3613 70.2372Q91.3768 70.3372 91.3856 70.438Q91.3943 70.5389 91.3963 70.64Q91.3982 70.7412 91.3933 70.8423Q91.3884 70.9434 91.3767 71.0439Q91.3651 71.1444 91.3466 71.2439Q91.3282 71.3434 91.3031 71.4415Q91.278 71.5395 91.2463 71.6356Q91.2147 71.7317 91.1766 71.8255Q91.1385 71.9193 91.0942 72.0102Q91.0499 72.1012 90.9996 72.189Q90.9493 72.2768 90.8931 72.361L84.4968 81.9555Q84.4457 82.0322 84.39 82.1055Q84.3343 82.1789 84.2742 82.2487Q84.214 82.3186 84.1497 82.3846Q84.0855 82.4506 84.0172 82.5125Q83.949 82.5744 83.8771 82.632Q83.8052 82.6897 83.7299 82.7428Q83.6546 82.7959 83.5762 82.8442Q83.4978 82.8926 83.4166 82.9361Q83.3354 82.9796 83.2516 83.018Q83.1679 83.0564 83.0819 83.0896Q82.996 83.1228 82.9081 83.1506Q82.8203 83.1785 82.7309 83.2009Q82.6416 83.2233 82.551 83.2402Q82.4604 83.2571 82.369 83.2684Q82.2775 83.2796 82.1856 83.2853Q82.0936 83.291 82.0015 83.291Q81.9094 83.291 81.8174 83.2853Q81.7254 83.2796 81.634 83.2684Q81.5426 83.2571 81.452 83.2402Q81.3614 83.2233 81.272 83.2009Q81.1827 83.1785 81.0948 83.1506Q81.007 83.1228 80.9211 83.0896Q80.8351 83.0564 80.7514 83.018Q80.6676 82.9796 80.5864 82.9361Q80.5051 82.8926 80.4267 82.8442Q80.3483 82.7959 80.273 82.7428Q80.1977 82.6897 80.1258 82.632Q80.054 82.5744 79.9857 82.5125Q79.9175 82.4506 79.8532 82.3846Q79.7889 82.3186 79.7288 82.2487Q79.6687 82.1789 79.613 82.1055Q79.5573 82.0322 79.5062 81.9555Z" id="nose" fill="#4C6EF5" fill-rule="evenodd" stroke="none" />
    <g id="eyes" transform="translate(19.001465 34.698486)">
      <path d="M0 20C0 10.0589 8.05887 2 18 2C27.9411 2 36 10.0589 36 20C36 29.9411 27.9411 38 18 38C8.05887 38 0 29.9411 0 20Z" id="eye-white-left" fill="#F0F0F0" fill-rule="evenodd" stroke="none" />
      <path d="M90 18C90 8.05887 98.0589 0 108 0C117.941 0 126 8.05887 126 18C126 27.9411 117.941 36 108 36C98.0589 36 90 27.9411 90 18Z" id="eye-white-right" fill="#F0F0F0" fill-rule="evenodd" stroke="none" />
      <path d="M9 20C9 15.0294 13.0294 11 18 11C22.9706 11 27 15.0294 27 20C27 24.9706 22.9706 29 18 29C13.0294 29 9 24.9706 9 20Z" id="eye-ball-left" fill="#364FC7" fill-rule="evenodd" stroke="none" />
      <path d="M99 18C99 13.0294 103.029 9 108 9C112.971 9 117 13.0294 117 18C117 22.9706 112.971 27 108 27C103.029 27 99 22.9706 99 18Z" id="eye-ball-right" fill="#364FC7" fill-rule="evenodd" stroke="none" />
    </g>
    <g id="ears">
      <path d="M12.8964 9.36753L24.2036 11.629Q24.3029 11.6488 24.4005 11.6753Q24.4982 11.7018 24.5939 11.7348Q24.6895 11.7678 24.7827 11.8072Q24.876 11.8466 24.9663 11.8922Q25.0567 11.9378 25.1437 11.9893Q25.2308 12.0409 25.3142 12.0982Q25.3976 12.1556 25.4769 12.2184Q25.5563 12.2812 25.6312 12.3492Q25.7061 12.4172 25.7763 12.4901Q25.8465 12.563 25.9116 12.6405Q25.9767 12.718 26.0364 12.7997Q26.0961 12.8814 26.1502 12.9669Q26.2043 13.0525 26.2525 13.1414Q26.3007 13.2304 26.3428 13.3225Q26.3849 13.4145 26.4207 13.5092Q26.4565 13.6038 26.4858 13.7007Q26.5151 13.7975 26.5378 13.8961Q26.5606 13.9947 26.5766 14.0947Q26.5926 14.1946 26.6019 14.2954Q26.6112 14.3961 26.6136 14.4973Q26.616 14.5985 26.6117 14.6996Q26.6073 14.8007 26.5961 14.9013Q26.5849 15.0018 26.567 15.1014Q26.549 15.201 26.5244 15.2992Q26.4998 15.3973 26.4686 15.4936Q26.4374 15.5899 26.3998 15.6839Q26.3622 15.7778 26.3184 15.869Q26.2746 15.9602 26.2247 16.0483Q26.1748 16.1363 26.1191 16.2208Q26.0633 16.3053 26.0021 16.3858Q25.9408 16.4663 25.8742 16.5426Q25.8076 16.6188 25.7361 16.6903L16.6903 25.7361Q16.6188 25.8077 16.5425 25.8742Q16.4663 25.9408 16.3858 26.0021Q16.3053 26.0634 16.2208 26.1191Q16.1363 26.1748 16.0483 26.2247Q15.9602 26.2746 15.869 26.3184Q15.7778 26.3623 15.6838 26.3999Q15.5899 26.4375 15.4936 26.4686Q15.3973 26.4998 15.2992 26.5244Q15.201 26.549 15.1014 26.567Q15.0018 26.5849 14.9012 26.5961Q14.8007 26.6073 14.6996 26.6117Q14.5985 26.6161 14.4973 26.6136Q14.3961 26.6112 14.2953 26.6019Q14.1946 26.5927 14.0947 26.5766Q13.9947 26.5606 13.8961 26.5379Q13.7975 26.5151 13.7006 26.4858Q13.6038 26.4565 13.5091 26.4207Q13.4145 26.3849 13.3224 26.3428Q13.2304 26.3007 13.1414 26.2525Q13.0524 26.2043 12.9669 26.1503Q12.8814 26.0962 12.7997 26.0364Q12.718 25.9767 12.6405 25.9116Q12.563 25.8465 12.4901 25.7763Q12.4172 25.7062 12.3492 25.6312Q12.2812 25.5563 12.2183 25.477Q12.1555 25.3976 12.0982 25.3142Q12.0409 25.2308 11.9893 25.1438Q11.9377 25.0567 11.8922 24.9663Q11.8466 24.876 11.8072 24.7828Q11.7678 24.6895 11.7348 24.5939Q11.7018 24.4982 11.6753 24.4005Q11.6488 24.3029 11.6289 24.2036L9.36751 12.8964Q9.34944 12.8061 9.33695 12.7148Q9.32446 12.6235 9.3176 12.5316Q9.31074 12.4398 9.30953 12.3476Q9.30832 12.2555 9.31277 12.1635Q9.31722 12.0715 9.32731 11.9799Q9.3374 11.8883 9.35309 11.7975Q9.36878 11.7067 9.39002 11.6171Q9.41125 11.5274 9.43795 11.4392Q9.46465 11.351 9.49671 11.2647Q9.52878 11.1783 9.56608 11.094Q9.60338 11.0098 9.64579 10.928Q9.68819 10.8462 9.73554 10.7672Q9.78289 10.6881 9.835 10.6121Q9.8871 10.5362 9.94378 10.4635Q10.0005 10.3909 10.0615 10.3219Q10.1225 10.2528 10.1877 10.1877Q10.2528 10.1225 10.3218 10.0615Q10.3909 10.0005 10.4635 9.9438Q10.5361 9.88712 10.6121 9.83501Q10.6881 9.7829 10.7671 9.73556Q10.8462 9.68821 10.928 9.64581Q11.0098 9.6034 11.094 9.5661Q11.1783 9.52879 11.2646 9.49673Q11.351 9.46467 11.4392 9.43797Q11.5274 9.41127 11.617 9.39003Q11.7067 9.3688 11.7975 9.35311Q11.8883 9.33741 11.9799 9.32732Q12.0714 9.31724 12.1635 9.31279Q12.2555 9.30834 12.3476 9.30955Q12.4397 9.31076 12.5316 9.31762Q12.6235 9.32448 12.7148 9.33697Q12.8061 9.34946 12.8964 9.36753Z" id="ear-left" fill="#4C6EF5" fill-rule="evenodd" stroke="none" />
      <path d="M154.632 12.8964L152.371 24.2036Q152.351 24.3029 152.325 24.4005Q152.298 24.4982 152.265 24.5939Q152.232 24.6895 152.193 24.7827Q152.153 24.876 152.108 24.9663Q152.062 25.0567 152.011 25.1437Q151.959 25.2308 151.902 25.3142Q151.844 25.3976 151.782 25.4769Q151.719 25.5563 151.651 25.6312Q151.583 25.7061 151.51 25.7763Q151.437 25.8465 151.359 25.9116Q151.282 25.9767 151.2 26.0364Q151.119 26.0961 151.033 26.1502Q150.948 26.2043 150.859 26.2525Q150.77 26.3007 150.678 26.3428Q150.585 26.3849 150.491 26.4207Q150.396 26.4565 150.299 26.4858Q150.202 26.5151 150.104 26.5378Q150.005 26.5606 149.905 26.5766Q149.805 26.5926 149.705 26.6019Q149.604 26.6112 149.503 26.6136Q149.401 26.616 149.3 26.6117Q149.199 26.6073 149.099 26.5961Q148.998 26.5849 148.899 26.567Q148.799 26.549 148.701 26.5244Q148.603 26.4998 148.506 26.4686Q148.41 26.4374 148.316 26.3998Q148.222 26.3622 148.131 26.3184Q148.04 26.2746 147.952 26.2247Q147.864 26.1748 147.779 26.1191Q147.695 26.0633 147.614 26.0021Q147.534 25.9408 147.457 25.8742Q147.381 25.8076 147.31 25.7361L138.264 16.6903Q138.192 16.6188 138.126 16.5425Q138.059 16.4663 137.998 16.3858Q137.937 16.3053 137.881 16.2208Q137.825 16.1363 137.775 16.0483Q137.725 15.9602 137.682 15.869Q137.638 15.7778 137.6 15.6838Q137.563 15.5899 137.531 15.4936Q137.5 15.3973 137.476 15.2992Q137.451 15.201 137.433 15.1014Q137.415 15.0018 137.404 14.9012Q137.393 14.8007 137.388 14.6996Q137.384 14.5985 137.386 14.4973Q137.389 14.3961 137.398 14.2953Q137.407 14.1946 137.423 14.0946Q137.439 13.9947 137.462 13.8961Q137.485 13.7975 137.514 13.7006Q137.544 13.6038 137.579 13.5091Q137.615 13.4145 137.657 13.3224Q137.699 13.2304 137.747 13.1414Q137.796 13.0524 137.85 12.9669Q137.904 12.8814 137.964 12.7997Q138.023 12.718 138.088 12.6405Q138.153 12.563 138.224 12.4901Q138.294 12.4172 138.369 12.3492Q138.444 12.2812 138.523 12.2183Q138.602 12.1555 138.686 12.0982Q138.769 12.0409 138.856 11.9893Q138.943 11.9377 139.034 11.8922Q139.124 11.8466 139.217 11.8072Q139.31 11.7678 139.406 11.7348Q139.502 11.7018 139.599 11.6753Q139.697 11.6488 139.796 11.6289L151.104 9.36751Q151.194 9.34944 151.285 9.33695Q151.376 9.32446 151.468 9.3176Q151.56 9.31074 151.652 9.30953Q151.744 9.30832 151.836 9.31277Q151.929 9.31722 152.02 9.32731Q152.112 9.3374 152.202 9.35309Q152.293 9.36878 152.383 9.39002Q152.473 9.41125 152.561 9.43795Q152.649 9.46465 152.735 9.49671Q152.822 9.52878 152.906 9.56608Q152.99 9.60338 153.072 9.64579Q153.154 9.68819 153.233 9.73554Q153.312 9.78289 153.388 9.835Q153.464 9.8871 153.536 9.94378Q153.609 10.0005 153.678 10.0615Q153.747 10.1225 153.812 10.1877Q153.877 10.2528 153.938 10.3218Q153.999 10.3909 154.056 10.4635Q154.113 10.5361 154.165 10.6121Q154.217 10.6881 154.264 10.7671Q154.312 10.8462 154.354 10.928Q154.397 11.0098 154.434 11.094Q154.471 11.1783 154.503 11.2646Q154.535 11.351 154.562 11.4392Q154.589 11.5274 154.61 11.617Q154.631 11.7067 154.647 11.7975Q154.663 11.8883 154.673 11.9799Q154.683 12.0714 154.687 12.1635Q154.692 12.2555 154.69 12.3476Q154.689 12.4397 154.682 12.5316Q154.675 12.6235 154.663 12.7148Q154.65 12.8061 154.632 12.8964Z" id="ear-right" fill="#4C6EF5" fill-rule="evenodd" stroke="none" />
    </g>
  </g>
</svg>