<?xml version="1.0" standalone="no"?>
<!DOCTYPE svg PUBLIC "-//W3C//DTD SVG 20010904//EN"
 "http://www.w3.org/TR/2001/REC-SVG-20010904/DTD/svg10.dtd">
<svg version="1.0" xmlns="http://www.w3.org/2000/svg"
 width="164.000000pt" height="164.000000pt" viewBox="0 0 164.000000 164.000000"
 preserveAspectRatio="xMidYMid meet">
<metadata>
Created by potrace 1.14, written by Peter Selinger 2001-2017
</metadata>
<g transform="translate(0.000000,164.000000) scale(0.100000,-0.100000)"
fill="#000000" stroke="none">
<path d="M100 1090 c0 -51 21 -128 36 -134 10 -4 36 13 70 46 70 66 70 88 -1
105 -27 6 -62 12 -77 12 -25 1 -28 -3 -28 -29z"/>
<path d="M403 1109 c-39 -11 -243 -199 -284 -260 -109 -164 -21 -387 175 -444
166 -48 341 66 371 242 l6 41 37 -16 c49 -21 175 -21 223 0 l35 15 18 -66 c59
-227 330 -304 495 -140 61 61 85 120 85 209 0 107 -24 151 -154 282 -140 142
-153 147 -342 148 -140 0 -147 -1 -153 -21 -9 -28 -63 -59 -105 -59 -42 0 -96
31 -105 59 -6 20 -13 21 -138 20 -73 0 -146 -5 -164 -10z m940 -253 c117 -50
144 -210 51 -298 -116 -108 -304 -26 -304 132 0 102 76 179 178 180 23 0 57
-6 75 -14z m-900 -20 c117 -50 144 -210 51 -298 -116 -108 -304 -26 -304 132
0 102 76 179 178 180 23 0 57 -6 75 -14z"/>
<path d="M1229 765 c-14 -8 -32 -28 -39 -45 -17 -42 5 -91 49 -110 67 -28 139
43 111 110 -12 30 -55 60 -82 60 -7 -1 -25 -7 -39 -15z"/>
<path d="M329 745 c-14 -8 -32 -28 -39 -45 -17 -42 5 -91 49 -110 67 -28 139
43 111 110 -12 30 -55 60 -82 60 -7 -1 -25 -7 -39 -15z"/>
<path d="M1435 1107 c-71 -17 -71 -39 -1 -105 34 -33 60 -50 70 -46 15 6 36
83 36 134 0 26 -3 30 -27 29 -16 0 -50 -6 -78 -12z"/>
<path d="M737 533 c-14 -13 -6 -34 29 -88 21 -31 44 -55 54 -55 18 0 90 99 90
124 0 8 -7 17 -16 20 -21 8 -149 8 -157 -1z"/>
</g>
</svg>
