<?xml version="1.0" encoding="utf-8"?>
<svg viewBox="-49.434 -37.087 913.675 255.118" width="913.675px" height="255.118px" xmlns="http://www.w3.org/2000/svg">
  <g transform="matrix(9.262539, 0, 0, -9.262539, 614.319882, 167.471941)" id="g4479">
    <path d="m 0,0 c 2.469,-0.974 7.679,-1.764 11.744,-1.764 4.451,0 6.298,1.528 6.298,3.445 0,1.72 -1.714,2.731 -6.63,4.533 -6.571,2.429 -11.39,4.34 -11.39,8.656 0,4.47 5.798,7.099 14.642,7.099 4.748,0 6.378,-0.3 9.395,-0.853 l 0.021,-4.241 c -2.961,0.563 -5.586,1.531 -9.664,1.531 -4.369,0 -6.23,-1.387 -6.23,-2.817 0,-2.075 2.866,-3.067 7.898,-4.86 7.002,-2.507 10.898,-4.441 10.898,-8.667 0,-4.348 -4.878,-7.487 -15.882,-7.487 -4.52,0 -7.635,0.298 -11.1,0.855 L 0,0 z" id="path4481" style="fill-opacity: 1; fill-rule: nonzero; stroke: none; fill: rgb(234, 234, 234);"/>
  </g>
  <g transform="matrix(9.262539, 0, 0, -9.262539, 397.354349, -1.303118)" id="g4483">
    <path d="m 0,0 -5.236,0 0,-19.823 5.236,0 c 8.039,0 13.11,3.437 13.11,9.871 C 13.11,-3.52 8.039,0 0,0 m 14.06,-21.67 c -2.593,-1.173 -7.491,-1.917 -11.777,-1.917 l -16.368,0 0,27.276 16.368,0 c 4.286,0 9.184,-0.754 11.779,-1.924 6.304,-2.846 8.362,-7.401 8.362,-11.717 0,-4.319 -2.039,-8.867 -8.364,-11.718" id="path4485" style="fill-opacity: 1; fill-rule: nonzero; stroke: none; fill: rgb(234, 234, 234);"/>
  </g>
  <g transform="matrix(9.262539, 0, 0, -9.262539, 160.612993, 78.926615)" id="g4487">
    <path d="m 0,0 c 0,0 7.636,1.223 7.636,5.977 0,4.647 -8.131,6.548 -16.782,6.548 -7.808,0 -12.941,-0.954 -12.941,-0.954 l 0,-4.222 c 3.544,0.857 6.933,1.587 11.553,1.587 4.958,0 8.742,-1.479 8.742,-3.569 0,-2.52 -3.742,-3.959 -11.795,-3.959 l -3.701,0 0,-3.799 3.438,0 c 8.483,0 13.307,-1.276 13.307,-4.39 0,-2.78 -4.31,-4.469 -9.684,-4.469 -4.686,0 -8.973,0.998 -12.45,1.963 l 0,-4.554 c 1.67,-0.287 6.101,-1.177 14.354,-1.177 9.142,0 17.097,2.94 17.097,8.122 C 8.774,-2.55 3.263,0 0,0" id="path4489" style="fill:#d12228;fill-opacity:1;fill-rule:nonzero;stroke:none"/>
  </g>
</svg>