<?xml version="1.0" encoding="utf-8"?>
<svg viewBox="19.266 2.887 239.224 101.669" width="239.224px" height="101.669px" xmlns="http://www.w3.org/2000/svg">
  <path d="M 186.843 340.477 C 195.995 344.146 215.325 347.06 230.414 347.06 C 246.927 347.06 253.759 341.448 253.759 334.325 C 253.759 327.849 247.413 324.179 229.183 317.488 C 204.802 308.53 186.918 301.406 186.918 285.325 C 186.918 268.812 208.439 258.99 241.239 258.99 C 258.853 258.99 264.897 260.07 276.078 262.12 L 276.165 277.878 C 265.178 275.827 255.442 272.265 240.322 272.265 C 224.111 272.265 217.203 277.446 217.203 282.735 C 217.203 290.398 227.845 294.067 246.506 300.759 C 272.484 310.041 286.936 317.164 286.936 332.814 C 286.936 349.003 268.836 360.659 228.018 360.659 C 211.256 360.659 199.697 359.58 186.843 357.421 L 186.843 340.477" style="fill-rule: nonzero; stroke: none; stroke-width: 0.05; stroke-linecap: butt; stroke-linejoin: miter; stroke-miterlimit: 4; stroke-dasharray: none; fill: rgb(229, 229, 229);" id="path100656" transform="matrix(1, 0, 0, 1, -28.445998, -256.102783)"/>
  <path d="M 99.96 272.913 L 80.533 272.913 L 80.533 346.521 L 99.96 346.521 C 129.781 346.521 148.593 333.677 148.593 309.825 C 148.593 285.972 129.781 272.913 99.96 272.913 Z M 152.101 353.32 C 142.495 357.637 124.32 360.443 108.433 360.443 L 47.712 360.443 L 47.712 259.206 L 108.433 259.206 C 124.32 259.206 142.495 262.012 152.122 266.329 C 175.51 276.906 183.13 293.851 183.13 309.825 C 183.13 325.798 175.575 342.743 152.101 353.32" style="fill-rule: nonzero; stroke: none; stroke-width: 0.05; stroke-linecap: butt; stroke-linejoin: miter; stroke-miterlimit: 4; stroke-dasharray: none; fill: rgb(229, 229, 229);" id="path100660" transform="matrix(1, 0, 0, 1, -28.445998, -256.102783)"/>
</svg>